<mxfile host="Electron" agent="Mozilla/5.0 (Windows NT 10.0; Win64; x64) AppleWebKit/537.36 (KHTML, like Gecko) draw.io/27.0.9 Chrome/134.0.6998.205 Electron/35.4.0 Safari/537.36" version="27.0.9">
  <diagram name="Page-1" id="uXry7Gg9CFaQaCJlkPD3">
    <mxGraphModel dx="1224" dy="1192" grid="1" gridSize="10" guides="1" tooltips="1" connect="1" arrows="1" fold="1" page="1" pageScale="1" pageWidth="1100" pageHeight="850" math="0" shadow="0">
      <root>
        <mxCell id="0" />
        <mxCell id="1" parent="0" />
        <mxCell id="U27J7jz3T2o6wye83ZCb-40" value="" style="rounded=1;whiteSpace=wrap;html=1;arcSize=8;dashed=1;fillColor=none;" parent="1" vertex="1">
          <mxGeometry x="620" y="140" width="400" height="550" as="geometry" />
        </mxCell>
        <mxCell id="U27J7jz3T2o6wye83ZCb-38" value="" style="rounded=1;whiteSpace=wrap;html=1;arcSize=8;dashed=1;fillColor=none;" parent="1" vertex="1">
          <mxGeometry x="16" y="140" width="524" height="550" as="geometry" />
        </mxCell>
        <mxCell id="U27J7jz3T2o6wye83ZCb-1" value="&lt;font style=&quot;font-size: 14px; color: rgb(255, 255, 255);&quot;&gt;crm_cust_info&lt;/font&gt;" style="swimlane;fontStyle=0;childLayout=stackLayout;horizontal=1;startSize=30;horizontalStack=0;resizeParent=1;resizeParentMax=0;resizeLast=0;collapsible=1;marginBottom=0;whiteSpace=wrap;html=1;swimlaneFillColor=none;rounded=1;arcSize=5;gradientColor=#0066CC;" parent="1" vertex="1">
          <mxGeometry x="311" y="465" width="190" height="120" as="geometry" />
        </mxCell>
        <mxCell id="U27J7jz3T2o6wye83ZCb-2" value="cst_id" style="text;strokeColor=none;fillColor=none;align=left;verticalAlign=middle;spacingLeft=4;spacingRight=4;overflow=hidden;points=[[0,0.5],[1,0.5]];portConstraint=eastwest;rotatable=0;whiteSpace=wrap;html=1;" parent="U27J7jz3T2o6wye83ZCb-1" vertex="1">
          <mxGeometry y="30" width="190" height="30" as="geometry" />
        </mxCell>
        <mxCell id="U27J7jz3T2o6wye83ZCb-20" value="cst_key" style="text;strokeColor=none;fillColor=none;align=left;verticalAlign=middle;spacingLeft=4;spacingRight=4;overflow=hidden;points=[[0,0.5],[1,0.5]];portConstraint=eastwest;rotatable=0;whiteSpace=wrap;html=1;" parent="U27J7jz3T2o6wye83ZCb-1" vertex="1">
          <mxGeometry y="60" width="190" height="30" as="geometry" />
        </mxCell>
        <mxCell id="5e6dJif9ZYoot4HyXjWY-3" value="&lt;font style=&quot;color: rgb(0, 25, 51);&quot;&gt;&lt;b&gt;CUSTOMER&lt;/b&gt;&lt;/font&gt;" style="text;html=1;strokeColor=#b85450;fillColor=#f8cecc;align=center;verticalAlign=middle;whiteSpace=wrap;overflow=hidden;gradientColor=#ea6b66;" vertex="1" parent="U27J7jz3T2o6wye83ZCb-1">
          <mxGeometry y="90" width="190" height="30" as="geometry" />
        </mxCell>
        <mxCell id="U27J7jz3T2o6wye83ZCb-5" value="&lt;font style=&quot;font-size: 13px;&quot;&gt;Customer info&lt;/font&gt;" style="rounded=1;whiteSpace=wrap;html=1;dashed=1;strokeColor=none;fillColor=none;" parent="1" vertex="1">
          <mxGeometry x="341" y="425" width="130" height="40" as="geometry" />
        </mxCell>
        <mxCell id="U27J7jz3T2o6wye83ZCb-6" value="&lt;font style=&quot;font-size: 14px; color: rgb(255, 255, 255);&quot;&gt;crm_prd_info&lt;/font&gt;" style="swimlane;fontStyle=0;childLayout=stackLayout;horizontal=1;startSize=30;horizontalStack=0;resizeParent=1;resizeParentMax=0;resizeLast=0;collapsible=1;marginBottom=0;whiteSpace=wrap;html=1;swimlaneFillColor=none;rounded=1;arcSize=8;gradientColor=#0066CC;" parent="1" vertex="1">
          <mxGeometry x="311" y="200" width="190" height="90" as="geometry" />
        </mxCell>
        <mxCell id="U27J7jz3T2o6wye83ZCb-7" value="prd_key" style="text;strokeColor=none;fillColor=none;align=left;verticalAlign=middle;spacingLeft=4;spacingRight=4;overflow=hidden;points=[[0,0.5],[1,0.5]];portConstraint=eastwest;rotatable=0;whiteSpace=wrap;html=1;" parent="U27J7jz3T2o6wye83ZCb-6" vertex="1">
          <mxGeometry y="30" width="190" height="30" as="geometry" />
        </mxCell>
        <mxCell id="5e6dJif9ZYoot4HyXjWY-1" value="&lt;font style=&quot;color: rgb(0, 25, 51);&quot;&gt;&lt;b&gt;PRODUCT&lt;/b&gt;&lt;/font&gt;" style="text;html=1;strokeColor=#FFFFFF;fillColor=#fad9d5;align=center;verticalAlign=middle;whiteSpace=wrap;overflow=hidden;" vertex="1" parent="U27J7jz3T2o6wye83ZCb-6">
          <mxGeometry y="60" width="190" height="30" as="geometry" />
        </mxCell>
        <mxCell id="U27J7jz3T2o6wye83ZCb-8" value="&lt;font style=&quot;font-size: 13px;&quot;&gt;current &amp;amp; history product information&lt;/font&gt;" style="rounded=1;whiteSpace=wrap;html=1;dashed=1;strokeColor=none;fillColor=none;" parent="1" vertex="1">
          <mxGeometry x="300" y="160" width="220" height="40" as="geometry" />
        </mxCell>
        <mxCell id="U27J7jz3T2o6wye83ZCb-9" value="&lt;font style=&quot;font-size: 14px; color: rgb(255, 255, 255);&quot;&gt;crm_sales_details&lt;/font&gt;" style="swimlane;fontStyle=0;childLayout=stackLayout;horizontal=1;startSize=30;horizontalStack=0;resizeParent=1;resizeParentMax=0;resizeLast=0;collapsible=1;marginBottom=0;whiteSpace=wrap;html=1;swimlaneFillColor=none;rounded=1;arcSize=8;gradientColor=#0066CC;" parent="1" vertex="1">
          <mxGeometry x="31" y="310" width="190" height="120" as="geometry" />
        </mxCell>
        <mxCell id="U27J7jz3T2o6wye83ZCb-10" value="prd_key" style="text;strokeColor=none;fillColor=none;align=left;verticalAlign=middle;spacingLeft=4;spacingRight=4;overflow=hidden;points=[[0,0.5],[1,0.5]];portConstraint=eastwest;rotatable=0;whiteSpace=wrap;html=1;" parent="U27J7jz3T2o6wye83ZCb-9" vertex="1">
          <mxGeometry y="30" width="190" height="30" as="geometry" />
        </mxCell>
        <mxCell id="U27J7jz3T2o6wye83ZCb-12" value="cst_id" style="text;strokeColor=none;fillColor=none;align=left;verticalAlign=middle;spacingLeft=4;spacingRight=4;overflow=hidden;points=[[0,0.5],[1,0.5]];portConstraint=eastwest;rotatable=0;whiteSpace=wrap;html=1;" parent="U27J7jz3T2o6wye83ZCb-9" vertex="1">
          <mxGeometry y="60" width="190" height="30" as="geometry" />
        </mxCell>
        <mxCell id="5e6dJif9ZYoot4HyXjWY-6" value="&lt;font style=&quot;color: rgb(255, 255, 255);&quot;&gt;&lt;b style=&quot;&quot;&gt;SALES&lt;/b&gt;&lt;/font&gt;" style="text;html=1;strokeColor=#36393d;fillColor=#99004D;align=center;verticalAlign=middle;whiteSpace=wrap;overflow=hidden;" vertex="1" parent="U27J7jz3T2o6wye83ZCb-9">
          <mxGeometry y="90" width="190" height="30" as="geometry" />
        </mxCell>
        <mxCell id="U27J7jz3T2o6wye83ZCb-11" value="&lt;font style=&quot;font-size: 13px;&quot;&gt;Transactional Records about Sales&amp;nbsp;&lt;/font&gt;" style="rounded=1;whiteSpace=wrap;html=1;dashed=1;strokeColor=none;fillColor=none;" parent="1" vertex="1">
          <mxGeometry x="16" y="241" width="220" height="70" as="geometry" />
        </mxCell>
        <mxCell id="U27J7jz3T2o6wye83ZCb-13" style="edgeStyle=orthogonalEdgeStyle;rounded=0;orthogonalLoop=1;jettySize=auto;html=1;entryX=-0.016;entryY=0.833;entryDx=0;entryDy=0;entryPerimeter=0;" parent="1" source="U27J7jz3T2o6wye83ZCb-12" target="U27J7jz3T2o6wye83ZCb-2" edge="1">
          <mxGeometry relative="1" as="geometry" />
        </mxCell>
        <mxCell id="U27J7jz3T2o6wye83ZCb-16" style="edgeStyle=orthogonalEdgeStyle;rounded=0;orthogonalLoop=1;jettySize=auto;html=1;entryX=-0.021;entryY=0.3;entryDx=0;entryDy=0;entryPerimeter=0;" parent="1" source="U27J7jz3T2o6wye83ZCb-10" target="U27J7jz3T2o6wye83ZCb-7" edge="1">
          <mxGeometry relative="1" as="geometry" />
        </mxCell>
        <mxCell id="U27J7jz3T2o6wye83ZCb-17" value="&lt;font style=&quot;font-size: 14px; color: rgb(0, 0, 51);&quot;&gt;erp_cust_az12&lt;/font&gt;" style="swimlane;fontStyle=0;childLayout=stackLayout;horizontal=1;startSize=30;horizontalStack=0;resizeParent=1;resizeParentMax=0;resizeLast=0;collapsible=1;marginBottom=0;whiteSpace=wrap;html=1;swimlaneFillColor=none;rounded=1;arcSize=5;fillColor=#f0a30a;fontColor=#000000;strokeColor=#BD7000;" parent="1" vertex="1">
          <mxGeometry x="740" y="440" width="190" height="90" as="geometry" />
        </mxCell>
        <mxCell id="U27J7jz3T2o6wye83ZCb-18" value="cid" style="text;strokeColor=none;fillColor=none;align=left;verticalAlign=middle;spacingLeft=4;spacingRight=4;overflow=hidden;points=[[0,0.5],[1,0.5]];portConstraint=eastwest;rotatable=0;whiteSpace=wrap;html=1;" parent="U27J7jz3T2o6wye83ZCb-17" vertex="1">
          <mxGeometry y="30" width="190" height="30" as="geometry" />
        </mxCell>
        <mxCell id="5e6dJif9ZYoot4HyXjWY-4" value="&lt;font style=&quot;color: rgb(0, 25, 51);&quot;&gt;&lt;b&gt;CUSTOMER&lt;/b&gt;&lt;/font&gt;" style="text;html=1;strokeColor=#b85450;fillColor=#f8cecc;align=center;verticalAlign=middle;whiteSpace=wrap;overflow=hidden;gradientColor=#ea6b66;" vertex="1" parent="U27J7jz3T2o6wye83ZCb-17">
          <mxGeometry y="60" width="190" height="30" as="geometry" />
        </mxCell>
        <mxCell id="U27J7jz3T2o6wye83ZCb-19" value="&lt;font style=&quot;font-size: 13px;&quot;&gt;extra customer info&lt;/font&gt;" style="rounded=1;whiteSpace=wrap;html=1;dashed=1;strokeColor=none;fillColor=none;" parent="1" vertex="1">
          <mxGeometry x="760" y="400" width="130" height="40" as="geometry" />
        </mxCell>
        <mxCell id="U27J7jz3T2o6wye83ZCb-23" value="&lt;font style=&quot;font-size: 14px; color: rgb(0, 0, 51);&quot;&gt;erp_loc_a101&lt;/font&gt;" style="swimlane;fontStyle=0;childLayout=stackLayout;horizontal=1;startSize=30;horizontalStack=0;resizeParent=1;resizeParentMax=0;resizeLast=0;collapsible=1;marginBottom=0;whiteSpace=wrap;html=1;swimlaneFillColor=none;rounded=1;arcSize=5;fillColor=#f0a30a;fontColor=#000000;strokeColor=#BD7000;" parent="1" vertex="1">
          <mxGeometry x="750" y="590" width="190" height="90" as="geometry" />
        </mxCell>
        <mxCell id="U27J7jz3T2o6wye83ZCb-24" value="cid" style="text;strokeColor=none;fillColor=none;align=left;verticalAlign=middle;spacingLeft=4;spacingRight=4;overflow=hidden;points=[[0,0.5],[1,0.5]];portConstraint=eastwest;rotatable=0;whiteSpace=wrap;html=1;" parent="U27J7jz3T2o6wye83ZCb-23" vertex="1">
          <mxGeometry y="30" width="190" height="30" as="geometry" />
        </mxCell>
        <mxCell id="5e6dJif9ZYoot4HyXjWY-5" value="&lt;font style=&quot;color: rgb(0, 25, 51);&quot;&gt;&lt;b&gt;CUSTOMER&lt;/b&gt;&lt;/font&gt;" style="text;html=1;strokeColor=#b85450;fillColor=#f8cecc;align=center;verticalAlign=middle;whiteSpace=wrap;overflow=hidden;gradientColor=#ea6b66;" vertex="1" parent="U27J7jz3T2o6wye83ZCb-23">
          <mxGeometry y="60" width="190" height="30" as="geometry" />
        </mxCell>
        <mxCell id="U27J7jz3T2o6wye83ZCb-25" value="&lt;font style=&quot;font-size: 13px;&quot;&gt;Location of&amp;nbsp; Customer&lt;/font&gt;" style="rounded=1;whiteSpace=wrap;html=1;dashed=1;strokeColor=none;fillColor=none;" parent="1" vertex="1">
          <mxGeometry x="771" y="557" width="130" height="40" as="geometry" />
        </mxCell>
        <mxCell id="U27J7jz3T2o6wye83ZCb-27" style="edgeStyle=orthogonalEdgeStyle;rounded=0;orthogonalLoop=1;jettySize=auto;html=1;entryX=1;entryY=0.5;entryDx=0;entryDy=0;" parent="1" source="U27J7jz3T2o6wye83ZCb-18" target="U27J7jz3T2o6wye83ZCb-20" edge="1">
          <mxGeometry relative="1" as="geometry">
            <Array as="points">
              <mxPoint x="630" y="485" />
              <mxPoint x="630" y="540" />
            </Array>
          </mxGeometry>
        </mxCell>
        <mxCell id="U27J7jz3T2o6wye83ZCb-33" value="&lt;font style=&quot;font-size: 14px; color: rgb(0, 0, 51);&quot;&gt;erp_px_cat_g1v2&lt;/font&gt;" style="swimlane;fontStyle=0;childLayout=stackLayout;horizontal=1;startSize=30;horizontalStack=0;resizeParent=1;resizeParentMax=0;resizeLast=0;collapsible=1;marginBottom=0;whiteSpace=wrap;html=1;swimlaneFillColor=none;rounded=1;arcSize=5;fillColor=#f0a30a;fontColor=#000000;strokeColor=#BD7000;" parent="1" vertex="1">
          <mxGeometry x="730" y="200" width="190" height="90" as="geometry" />
        </mxCell>
        <mxCell id="U27J7jz3T2o6wye83ZCb-34" value="id" style="text;strokeColor=none;fillColor=none;align=left;verticalAlign=middle;spacingLeft=4;spacingRight=4;overflow=hidden;points=[[0,0.5],[1,0.5]];portConstraint=eastwest;rotatable=0;whiteSpace=wrap;html=1;" parent="U27J7jz3T2o6wye83ZCb-33" vertex="1">
          <mxGeometry y="30" width="190" height="30" as="geometry" />
        </mxCell>
        <mxCell id="5e6dJif9ZYoot4HyXjWY-2" value="&lt;font style=&quot;color: rgb(0, 25, 51);&quot;&gt;&lt;b&gt;PRODUCT&lt;/b&gt;&lt;/font&gt;" style="text;html=1;strokeColor=#ae4132;fillColor=#fad9d5;align=center;verticalAlign=middle;whiteSpace=wrap;overflow=hidden;" vertex="1" parent="U27J7jz3T2o6wye83ZCb-33">
          <mxGeometry y="60" width="190" height="30" as="geometry" />
        </mxCell>
        <mxCell id="U27J7jz3T2o6wye83ZCb-35" value="&lt;font style=&quot;font-size: 13px;&quot;&gt;extra product info&lt;/font&gt;" style="rounded=1;whiteSpace=wrap;html=1;dashed=1;strokeColor=none;fillColor=none;" parent="1" vertex="1">
          <mxGeometry x="750" y="160" width="130" height="40" as="geometry" />
        </mxCell>
        <mxCell id="U27J7jz3T2o6wye83ZCb-36" style="edgeStyle=orthogonalEdgeStyle;rounded=0;orthogonalLoop=1;jettySize=auto;html=1;exitX=0;exitY=0.5;exitDx=0;exitDy=0;entryX=1;entryY=0.5;entryDx=0;entryDy=0;" parent="1" source="U27J7jz3T2o6wye83ZCb-34" target="U27J7jz3T2o6wye83ZCb-7" edge="1">
          <mxGeometry relative="1" as="geometry" />
        </mxCell>
        <mxCell id="U27J7jz3T2o6wye83ZCb-37" value="Relationship between the tables" style="text;strokeColor=#B20000;fillColor=#e51400;align=left;verticalAlign=middle;spacingLeft=4;spacingRight=4;overflow=hidden;points=[[0,0.5],[1,0.5]];portConstraint=eastwest;rotatable=0;whiteSpace=wrap;html=1;fontColor=#ffffff;" parent="1" vertex="1">
          <mxGeometry x="40" y="20" width="260" height="30" as="geometry" />
        </mxCell>
        <mxCell id="U27J7jz3T2o6wye83ZCb-41" value="&lt;b&gt;&lt;font style=&quot;font-size: 21px;&quot;&gt;CRM&lt;/font&gt;&lt;/b&gt;" style="rounded=1;whiteSpace=wrap;html=1;gradientColor=none;fillColor=#4D9900;" parent="1" vertex="1">
          <mxGeometry x="200" y="110" width="130" height="40" as="geometry" />
        </mxCell>
        <mxCell id="U27J7jz3T2o6wye83ZCb-42" value="&lt;b&gt;&lt;font style=&quot;font-size: 21px;&quot;&gt;ERP&lt;/font&gt;&lt;/b&gt;" style="rounded=1;whiteSpace=wrap;html=1;gradientColor=none;fillColor=#999900;" parent="1" vertex="1">
          <mxGeometry x="755" y="114" width="130" height="40" as="geometry" />
        </mxCell>
        <mxCell id="U27J7jz3T2o6wye83ZCb-43" style="edgeStyle=orthogonalEdgeStyle;rounded=0;orthogonalLoop=1;jettySize=auto;html=1;entryX=1;entryY=0.5;entryDx=0;entryDy=0;" parent="1" target="U27J7jz3T2o6wye83ZCb-20" edge="1">
          <mxGeometry relative="1" as="geometry">
            <Array as="points">
              <mxPoint x="630" y="630" />
              <mxPoint x="630" y="540" />
            </Array>
            <mxPoint x="750" y="630" as="sourcePoint" />
          </mxGeometry>
        </mxCell>
      </root>
    </mxGraphModel>
  </diagram>
</mxfile>
